<svg xmlns="http://www.w3.org/2000/svg" viewBox="0 0 64 64">
  <circle cx="32" cy="32" r="32" fill="#f5f1e8"/>
  <ellipse cx="20" cy="24" rx="6" ry="5" fill="#4b4032"/>
  <ellipse cx="14" cy="34" rx="5" ry="4" fill="#4b4032"/>
  <ellipse cx="18" cy="46" rx="5" ry="4" fill="#4b4032"/>
  <ellipse cx="34" cy="48" rx="5" ry="4" fill="#4b4032"/>
  <ellipse cx="44" cy="40" rx="5" ry="4" fill="#4b4032"/>
  <ellipse cx="40" cy="22" rx="5" ry="4" fill="#4b4032"/>
  <ellipse cx="32" cy="32" rx="20" ry="17" fill="#7b6040"/>
  <path d="M32 17 L45 25 L45 39 L32 47 L19 39 L19 25 Z" fill="#4b4032"/>
  <path d="M32 17 L32 47 M19 25 L45 25 M19 39 L45 39 M32 17 L19 25 M32 17 L45 25 M32 47 L19 39 M32 47 L45 39" stroke="#7b6040" stroke-width="1.2" fill="none"/>
</svg>
